<svg xmlns="http://www.w3.org/2000/svg" viewBox="0 0 48 48" width="48" height="48">
  <path fill="#4285F4" d="M44 24c0-1.6-.1-3.1-.4-4.6H24v8.7h11.2c-.5 2.7-2 5-4.2 6.5v5.4h6.8c4-3.7 6.3-9.1 6.3-15z"/>
  <path fill="#34A853" d="M24 44c5.7 0 10.5-1.9 14-5.1l-6.8-5.4c-1.9 1.3-4.3 2-7.2 2-5.5 0-10.2-3.7-11.9-8.7H5.1v5.6C8.6 39.1 15.8 44 24 44z"/>
  <path fill="#FBBC05" d="M12.1 28.8c-.4-1.3-.7-2.7-.7-4.1s.3-2.8.7-4.1V14.9H5.1C3.7 17.8 3 21.3 3 24.7s.7 6.9 2.1 9.8l6.9-5.7z"/>
  <path fill="#EA4335" d="M24 9.5c3.1 0 5.9 1.1 8.1 3.2l6-6C34.5 3.1 29.7 1 24 1 15.8 1 8.6 5.9 5.1 14.9l6.9 5.7c1.7-5 6.4-8.7 11.9-8.7z"/>
</svg>
